<?xml version="1.0" encoding="utf-8"?>
<!DOCTYPE svg PUBLIC "-//W3C//DTD SVG 1.1//EN" "http://www.w3.org/Graphics/SVG/1.1/DTD/svg11.dtd">
<svg version="1.1" id="Capa_1" xmlns="http://www.w3.org/2000/svg" xmlns:xlink="http://www.w3.org/1999/xlink" x="0px" y="0px"
width="680px" height="151px" viewBox="0 0 680 151" enable-background="new 0 0 480 854" xml:space="preserve">
<defs></defs><path layer="1" fill="#2f3334" fill-opacity="1.0" stroke="#000000" stroke-width="2" stroke-opacity="0.0" stroke-miterlimit="10" d="M112.50014,4.7683506C112.50014,4.7683506,674.9998,4.7683506,562.4999,4.7683506C674.9998,4.7683506,674.9998,4.7683506,674.9998,28.30659C674.9998,28.30659,674.9998,122.45956,674.9998,122.45956C674.9998,145.99779,674.9998,145.99779,562.4999,145.9979C562.4999,145.9979,112.5001,145.99832,112.5001,145.99832C2.0839601E-4,145.99843,2.0839601E-4,145.99843,1.667168E-4,122.460205C1.667168E-4,122.460205,0.0,28.307238,0.0,28.307238C2.0839601E-4,4.7683506,2.0839601E-4,4.7683506,112.50014,4.7683506"/>
<path layer="1" fill="#2f3334" fill-opacity="1.0" stroke="#000000" stroke-width="2" stroke-opacity="0.0" stroke-miterlimit="10" d="M86.35715,91.41525C86.35715,91.41525,56.63571,91.41525,62.58,91.41525C56.63571,91.41525,56.63571,91.41525,56.63571,91.2664C56.63571,91.2664,56.63571,90.671005,56.63571,90.671005C56.63571,90.522156,56.63571,90.522156,62.579998,90.522156C62.579998,90.522156,86.35715,90.522156,86.35715,90.522156C92.30144,90.522156,92.30144,90.522156,92.30144,90.671005C92.30144,90.671005,92.30144,91.2664,92.30144,91.2664C92.30144,91.41525,92.30144,91.41525,86.35715,91.41525"/>
</svg>