<?xml version="1.0" encoding="utf-8"?>
<!DOCTYPE svg PUBLIC "-//W3C//DTD SVG 1.1//EN" "http://www.w3.org/Graphics/SVG/1.1/DTD/svg11.dtd">
<svg version="1.1" id="Capa_1" xmlns="http://www.w3.org/2000/svg" xmlns:xlink="http://www.w3.org/1999/xlink" x="0px" y="0px"
width="242px" height="107px" viewBox="0 0 242 107" enable-background="new 0 0 480 854" xml:space="preserve">
<defs></defs><path layer="1" fill="#2f3334" fill-opacity="1.0" stroke="#000000" stroke-width="2" stroke-opacity="0.0" stroke-miterlimit="10" d="M40.304165,5.722046E-6C40.304165,5.722046E-6,241.825,5.722046E-6,201.52083,5.722046E-6C241.825,5.722046E-6,241.825,5.722046E-6,241.825,17.745832C241.825,17.745832,241.825,88.729164,241.825,88.729164C241.825,106.475,241.825,106.475,201.52083,106.475C201.52083,106.475,40.30416,106.475,40.30416,106.475C4.7683716E-7,106.475,4.7683716E-7,106.475,4.7683716E-7,88.72917C4.7683716E-7,88.72917,4.7683716E-7,17.74584,4.7683716E-7,17.74584C4.7683716E-7,5.722046E-6,4.7683716E-7,5.722046E-6,40.304165,5.722046E-6"/>
</svg>